<?xml version="1.0" encoding="utf-8"?>
<!-- Generator: Adobe Illustrator 20.1.0, SVG Export Plug-In . SVG Version: 6.00 Build 0)  -->
<svg version="1.1" id="Layer_1" xmlns="http://www.w3.org/2000/svg" xmlns:xlink="http://www.w3.org/1999/xlink" x="0px" y="0px"
	 viewBox="0 0 120 120" style="enable-background:new 0 0 120 120;" xml:space="preserve">
<style type="text/css">
	.st0{fill-rule:evenodd;clip-rule:evenodd;fill:#DF136F;}
	.st1{fill-rule:evenodd;clip-rule:evenodd;fill:#054F98;}
	.st2{fill:#DF136F;}
	.st3{fill:#054F98;}
</style>
<path class="st0" d="M56.2,60.2c0-7.2,0-14.4,0-21.9c8.3,0,16.8,0,25.6,0c0,7.9,0,15.7,0,23.9c-3.9,0-7.9,0-12.5,0
	c1.8-1.3,3.4-2.3,4.8-3.4c4.6-3.7,5.9-10.1,2.9-14.9c-1.4-2.3-3.4-3.3-5.9-2c-7.7,3.9-13,9.8-15.1,18.4L56.2,60.2z"/>
<path class="st1" d="M77.2,84.2c-7.1,0-14,0-21.3,0c0-3,0-6,0-8.7c1.2,1,2.5,2.3,4,3.4c2.9,2.1,4.6,1.4,5.9-1.8
	c2.2-5.4-0.1-8.9-5-11.5c0.1-0.3,0.2-0.6,0.4-0.9c5.2,0,10.4,0,16,0C77.2,70.7,77.2,77.2,77.2,84.2z"/>
<path class="st1" d="M39,62.5c-2.9,0-5.1,0-7.5,0c0-7,0-13.9,0-21c7.4,0,14.8,0,22.4,0c0,5.4,0,10.8,0,16.7
	c-1.7-2.2-3.1-4.1-4.6-5.9c-1.2-1.4-2.5-2.8-3.9-3.9c-3.9-3.1-8.4-3.1-10.9,0c-3,3.7-2.5,8.3,1.4,11.7C36.8,60.8,37.6,61.5,39,62.5z
	"/>
<path class="st0" d="M36,81.1c0-5.6,0-11,0-17.2c3.4,0.4,6.6,0.8,9.8,1.1c-1.1,3.3-2.2,6-2.8,8.8c-0.7,3.4,1.5,5.2,4.5,3.6
	c2.5-1.3,4.4-3.6,6.4-5.4c0,2.7,0,5.8,0,9.1C47.9,81.1,42.2,81.1,36,81.1z"/>
<path class="st0" d="M56.1,60.3c1.4-2,2.7-4.1,4.3-5.8c2.7-2.7,5.5-5.2,8.5-7.4c2.5-1.8,5-1.7,6.8,1.4c1.7,2.9,1.2,5.3-1.8,6.6
	c-5,2.2-10.1,4.3-15.2,6.3c-0.6,0.2-1.7-0.8-2.5-1.2C56.2,60.2,56.1,60.3,56.1,60.3z"/>
<path class="st1" d="M34.5,52.3c5.5-3.6,11.2-0.5,16.6,9.1C44.1,60.8,38.5,58.1,34.5,52.3z"/>
<path class="st0" d="M53.9,67.4c-1.4,2.8-3.2,5.4-6.7,5.8c-0.8,0.1-1.7-0.6-2.5-0.9c0.3-0.7,0.4-1.8,1-2.1c2.5-1.4,5-2.6,7.6-3.9
	C53.5,66.6,53.7,67,53.9,67.4z"/>
<path class="st1" d="M64.5,75.6c-4.1-0.1-5.7-3.4-7-7.1c2.6,2,5.1,4.1,7.7,6.1C65,74.9,64.8,75.3,64.5,75.6z"/>
<path class="st2" d="M23.5,26.2c1.3,1.7,2.4,3.1,3,3.8c0.5,0.5,0.9,0.8,1.5,0.5c0.3-0.2,0.7-0.4,1-0.6c0.2-0.2,0.3-0.2,0.4-0.1
	c0.1,0.1,0,0.3-0.3,0.5c-1.1,0.9-2.3,1.7-2.8,2c-0.5,0.4-1.6,1.3-2.2,1.8c-0.3,0.2-0.4,0.3-0.5,0.1c-0.1-0.1,0-0.2,0.2-0.4
	c0.3-0.2,0.5-0.4,0.6-0.6c0.3-0.3,0.1-0.8-0.2-1.4c-0.5-0.8-1.5-2.2-2.8-3.9l-2.4-3.2c-2.1-2.7-2.5-3.2-3-3.8
	c-0.5-0.6-0.9-0.8-1.6-0.4c-0.2,0.1-0.5,0.3-0.7,0.5c-0.2,0.1-0.3,0.2-0.4,0.1c-0.1-0.1,0-0.3,0.3-0.5c0.5-0.4,1-0.7,1.5-1.1
	c0.5-0.3,0.9-0.6,1.2-0.8c0.7-0.5,4.3-3.3,4.7-3.7c0.3-0.3,0.5-0.4,0.7-0.6c0.1-0.1,0.1-0.3,0.2-0.3c0.1-0.1,0.2,0,0.3,0.1
	c0.1,0.1,0.2,0.4,0.5,0.9c0.1,0.2,0.9,1.3,1,1.5c0.1,0.2,0.1,0.3,0,0.4c-0.1,0.1-0.2,0-0.4-0.2c-0.1-0.1-0.3-0.4-0.6-0.6
	c-0.3-0.2-0.9-0.1-1.6,0.4L18,18.7c-0.1,0.1-0.1,0.2,0,0.4l3.5,4.5c0.1,0.1,0.1,0.1,0.3,0.1l2.3-1.8c0.3-0.2,0.6-0.4,0.8-0.6
	c0.3-0.3,0.5-0.5,0.5-0.9c0-0.2,0-0.3,0.1-0.4c0.1-0.1,0.1,0,0.2,0.1c0.1,0.1,0.3,0.6,0.7,1.2c0.2,0.4,0.8,1.2,0.9,1.4
	c0.1,0.2,0.3,0.3,0.1,0.5c-0.1,0.1-0.2,0-0.3-0.1c-0.1-0.1-0.3-0.3-0.5-0.5c-0.3-0.2-0.8-0.3-1.4,0.1c-0.5,0.3-2.4,1.8-2.7,2
	c-0.1,0.1-0.1,0.1,0,0.3L23.5,26.2z"/>
<path class="st2" d="M30.7,16.3c-1.1-3.3-1.3-3.9-1.6-4.5c-0.3-0.7-0.6-1-1.3-0.9c-0.2,0-0.6,0.1-0.9,0.2c-0.2,0.1-0.4,0.1-0.4-0.1
	c-0.1-0.2,0.1-0.2,0.4-0.4c1.1-0.4,2.5-0.8,3-1c0.7-0.3,2.3-0.9,3-1.1c1.4-0.5,2.8-0.8,4.3-0.4c0.7,0.2,2,1,2.5,2.4
	c0.5,1.6,0.4,3.3-1.2,5.8c2.7,1.7,4.9,3.1,6.6,4c1.6,0.8,2.6,0.7,2.9,0.6c0.3,0,0.5-0.1,0.6-0.1c0.2-0.1,0.3,0,0.3,0.1
	c0.1,0.2-0.1,0.3-0.3,0.4l-2,0.7c-1.2,0.4-1.8,0.5-2.4,0.4c-1.1-0.2-2.3-0.9-4-2.1c-1.3-0.9-2.8-2-3.2-2.2c-0.2-0.1-0.3-0.1-0.4,0
	l-1.9,0.6c-0.1,0-0.2,0.1-0.1,0.2l0.1,0.3c0.7,2,1.3,3.7,1.7,4.6c0.3,0.6,0.6,1,1.2,0.9c0.3-0.1,0.8-0.2,1.1-0.3
	c0.2-0.1,0.3,0,0.3,0.1c0.1,0.2-0.1,0.3-0.4,0.4c-1.2,0.4-2.9,0.9-3.2,1c-0.4,0.1-1.7,0.7-2.6,1c-0.3,0.1-0.5,0.1-0.5-0.1
	c0-0.1,0-0.2,0.3-0.3c0.3-0.1,0.6-0.2,0.7-0.4c0.4-0.2,0.3-0.7,0.2-1.4c-0.2-0.9-0.8-2.6-1.5-4.6L30.7,16.3z M33.9,17.1
	c0.1,0.2,0.2,0.3,0.3,0.3c0.5,0,1.2-0.2,1.7-0.3c0.9-0.3,1.1-0.5,1.4-0.9c0.5-0.7,0.8-1.9,0.2-3.7c-1.1-3-3.4-3.2-4.6-2.8
	c-0.5,0.2-0.9,0.3-1.1,0.5c-0.1,0.1-0.1,0.2-0.1,0.4L33.9,17.1z"/>
<path class="st2" d="M50.9,11.1c-0.3-3.4-0.3-4.1-0.4-4.8c-0.1-0.8-0.4-1.1-0.9-1.2c-0.3,0-0.6,0-0.8,0c-0.2,0-0.4,0-0.4-0.2
	c0-0.1,0.2-0.2,0.5-0.2c0.9-0.1,2.3-0.1,2.9-0.2c0.6,0,1.9-0.2,2.8-0.3c0.3,0,0.5,0,0.5,0.1c0,0.2-0.1,0.2-0.3,0.3
	c-0.2,0-0.4,0.1-0.7,0.1c-0.6,0.2-0.8,0.6-0.7,1.4c0,0.7,0.1,1.4,0.3,4.8l0.3,4c0.2,2.2,0.3,4,0.5,5c0.1,0.6,0.3,1,1,1
	c0.3,0,0.8,0,1.2,0c0.2,0,0.4,0,0.4,0.2c0,0.2-0.2,0.2-0.4,0.3c-1.5,0.1-2.9,0.2-3.5,0.2c-0.5,0-1.9,0.2-2.8,0.3
	c-0.3,0-0.5,0-0.5-0.2c0-0.1,0.1-0.2,0.3-0.2c0.3,0,0.6-0.1,0.8-0.2c0.4-0.1,0.5-0.5,0.6-1.2c0-1-0.1-2.7-0.3-4.9L50.9,11.1z"/>
<path class="st2" d="M64.1,16c0.2-1.2,0.1-1.7-0.1-2.4c-0.1-0.4-2.3-5.8-2.9-7.1c-0.4-0.9-0.9-1.6-1.3-1.9c-0.3-0.2-0.6-0.4-0.9-0.4
	c-0.2,0-0.3-0.1-0.3-0.3c0-0.1,0.2-0.2,0.5-0.1c0.4,0.1,2.1,0.4,2.8,0.5c0.5,0.1,1.4,0.2,2.4,0.3c0.2,0,0.3,0.1,0.3,0.3
	C64.6,5,64.5,5,64.1,5c-0.2,0-0.4,0.2-0.4,0.4c0,0.2,0,0.5,0.1,0.8c0.2,0.7,2.4,6.6,2.7,7.3c0.3-0.5,4-5,4.4-5.6
	c0.3-0.5,0.5-0.8,0.5-1.1c0-0.2,0-0.5-0.4-0.6c-0.2-0.1-0.4-0.2-0.4-0.3c0-0.2,0.1-0.2,0.4-0.1c0.7,0.1,1.4,0.3,2.1,0.4
	c0.5,0.1,2,0.3,2.4,0.3c0.2,0,0.4,0.1,0.4,0.2c0,0.2-0.2,0.2-0.5,0.2c-0.2,0-0.7,0-1,0.1c-0.5,0.1-0.8,0.4-1.4,0.9
	c-0.9,0.8-4.9,5.5-5.5,6.4c-0.5,0.7-0.6,1.4-0.7,2.2l-0.3,1.8c-0.1,0.4-0.2,1.3-0.3,2.3c-0.1,0.7,0.1,1.2,0.7,1.4
	c0.3,0.1,0.8,0.2,1.1,0.3c0.2,0,0.3,0.1,0.3,0.2c0,0.2-0.2,0.2-0.5,0.1c-1.4-0.2-2.8-0.5-3.4-0.6c-0.6-0.1-2-0.3-2.8-0.4
	c-0.3-0.1-0.5-0.1-0.5-0.3c0-0.1,0.1-0.2,0.4-0.1c0.3,0.1,0.6,0.1,0.8,0c0.5,0,0.7-0.5,0.9-1.1c0.2-0.9,0.4-1.9,0.4-2.2L64.1,16z"/>
<path class="st2" d="M77.3,19.6c-0.1-0.1-0.2,0-0.3,0.1l-2.5,2.2c-0.5,0.4-0.8,0.8-0.9,1.1c-0.2,0.4-0.1,0.7,0.5,1l0.3,0.2
	c0.2,0.1,0.3,0.2,0.2,0.3c-0.1,0.2-0.2,0.1-0.4,0c-0.6-0.3-1.5-0.8-2.1-1.2c-0.2-0.1-1.4-0.6-2.4-1.2c-0.3-0.1-0.4-0.2-0.3-0.4
	c0.1-0.1,0.2-0.1,0.3,0c0.2,0.1,0.5,0.2,0.6,0.3c1,0.4,1.7-0.1,2.7-0.9l11.5-9.9c0.5-0.5,0.8-0.6,1-0.5c0.2,0.1,0.2,0.3,0.2,0.9
	c-0.1,1.4-1,11.1-1.3,14.8c-0.2,2.2,0.3,2.8,0.6,3.1c0.3,0.2,0.6,0.4,0.8,0.5c0.2,0.1,0.3,0.2,0.2,0.3c-0.1,0.2-0.3,0.1-1-0.3
	c-0.7-0.4-2.2-1.1-3.8-2c-0.4-0.2-0.6-0.3-0.5-0.5c0.1-0.1,0.2-0.1,0.4,0c0.2,0,0.4-0.1,0.4-0.4l0.5-5c0-0.1,0-0.2-0.1-0.2
	L77.3,19.6z M81.9,20.8c0.1,0.1,0.2,0,0.2-0.1l0.7-5.9c0-0.1,0.1-0.2,0-0.2c-0.1,0-0.2,0-0.2,0.1l-4.4,4c-0.1,0.1-0.1,0.1,0,0.2
	L81.9,20.8z"/>
<path class="st2" d="M91.8,28.8c0.8-0.9,1-1.4,1.2-2.1c0.1-0.4,1.3-6.1,1.5-7.5c0.2-1,0.1-1.8,0-2.3c-0.1-0.3-0.3-0.7-0.5-0.9
	c-0.1-0.1-0.2-0.3-0.1-0.4c0.1-0.1,0.3,0,0.5,0.1c0.3,0.3,1.5,1.5,2,2c0.3,0.3,1.1,0.9,1.8,1.6c0.2,0.2,0.2,0.3,0.1,0.4
	c-0.1,0.1-0.2,0-0.5-0.2c-0.2-0.1-0.4-0.1-0.5,0.1c-0.1,0.1-0.2,0.4-0.3,0.8c-0.2,0.7-1.6,6.9-1.8,7.6c0.5-0.2,6-2,6.7-2.3
	c0.5-0.2,0.8-0.4,1-0.6c0.2-0.2,0.3-0.4,0-0.7c-0.1-0.2-0.2-0.3-0.1-0.4c0.1-0.1,0.2-0.1,0.4,0.1c0.5,0.5,1,1.1,1.5,1.5
	c0.4,0.3,1.5,1.3,1.8,1.6c0.2,0.2,0.3,0.3,0.2,0.4c-0.1,0.1-0.3,0-0.5-0.1c-0.2-0.2-0.5-0.4-0.9-0.5c-0.5-0.2-0.9-0.1-1.7,0
	c-1.2,0.2-7.1,1.9-8.1,2.3c-0.8,0.4-1.3,0.9-1.8,1.4l-1.3,1.4c-0.2,0.3-0.9,1-1.5,1.7c-0.4,0.5-0.6,1-0.2,1.5
	c0.2,0.2,0.5,0.6,0.8,0.8c0.2,0.2,0.2,0.3,0.1,0.4c-0.1,0.1-0.3,0-0.5-0.2c-1-1-2-2-2.5-2.4c-0.4-0.4-1.5-1.3-2.1-1.9
	c-0.2-0.2-0.3-0.4-0.2-0.5c0.1-0.1,0.2-0.1,0.4,0.1c0.2,0.2,0.5,0.4,0.6,0.5c0.4,0.2,0.9,0,1.4-0.4c0.7-0.7,1.3-1.4,1.6-1.6
	L91.8,28.8z"/>
<path class="st2" d="M23.5,93.8C21.9,95,21,95.6,21,96c0,0.4,0.1,0.7,0.8,1.7c0.5,0.7,0.9,1.1,1.4,1.2c0.3,0,0.7-0.1,1-0.2
	c0.1-0.1,0.2-0.1,0.3,0c0.1,0.1,0,0.1-0.1,0.3c-0.1,0.1-1.1,0.7-1.6,0.9c-0.3,0.1-0.4,0.1-0.9-0.5c-0.7-0.9-1.1-1.6-1.5-2.1
	c-0.4-0.6-0.7-1-1.1-1.6c-0.1-0.1-0.3-0.4-0.5-0.7c-0.2-0.3-0.5-0.6-0.7-0.8c-0.1-0.2-0.1-0.3-0.1-0.3c0.1,0,0.1,0,0.2,0.1
	c0.1,0.2,0.3,0.3,0.4,0.4c0.2,0.2,0.6,0.1,1-0.1c0.6-0.3,1.6-1,2.7-1.9l2.2-1.6c1.9-1.4,2.3-1.6,2.6-2c0.4-0.3,0.5-0.6,0.3-1.1
	c0-0.1-0.1-0.3-0.3-0.4c-0.1-0.1-0.1-0.2,0-0.3c0.1-0.1,0.2,0,0.3,0.2c0.4,0.6,1,1.4,1.2,1.7c0.2,0.3,0.9,1.2,1.3,1.7
	c0.1,0.2,0.2,0.3,0.1,0.3c-0.1,0.1-0.2,0-0.3-0.1c-0.1-0.1-0.3-0.3-0.4-0.5c-0.3-0.3-0.6-0.2-1.1,0.1c-0.4,0.3-0.8,0.5-2.7,1.9
	L23.5,93.8z"/>
<path class="st2" d="M28.8,97.2c1.9-1.8,5.6-2.9,8.8,0.5c2.7,2.8,2.7,6.1,0.1,8.5c-2.6,2.4-6.3,2.6-9-0.3
	C25.6,102.6,26.8,99,28.8,97.2z M35.8,105c2.5-2.4,2.7-5.3,1-7.2c-1.2-1.3-3.3-2.1-6.1,0.6c-2.3,2.2-3,5.3-0.9,7.4
	C30.4,106.6,32.5,108.1,35.8,105z"/>
<path class="st2" d="M41.4,110.8c-0.3,1.2-0.2,1.6,0,1.8c0.2,0.2,0.5,0.3,0.7,0.3c0.2,0.1,0.2,0.1,0.2,0.2c0,0.1-0.2,0.1-0.4,0
	c-1-0.3-1.5-0.5-1.8-0.6c-0.1,0-0.8-0.2-1.6-0.4c-0.2-0.1-0.3-0.1-0.3-0.2c0-0.1,0.1-0.1,0.3,0c0.2,0.1,0.5,0.1,0.7,0.1
	c0.4,0,0.6-0.4,1-1.7l2.8-8.7c0.1-0.3,0.2-0.5,0.3-0.4c0.2,0,0.2,0.3,0.4,0.6c0.1,0.2,1.7,3.3,3.2,6.1c0.7,1.3,2.1,4.1,2.3,4.4
	l0.1,0l1.9-6.7c0.3-0.9,0.2-1.2-0.1-1.5c-0.2-0.2-0.6-0.3-0.8-0.3c-0.2-0.1-0.2-0.1-0.2-0.2c0-0.1,0.2-0.1,0.4,0
	c0.8,0.2,1.5,0.5,1.8,0.6c0.2,0,0.7,0.2,1.5,0.4c0.2,0.1,0.3,0.1,0.3,0.2c0,0.1-0.1,0.1-0.3,0.1c-0.1,0-0.3-0.1-0.5-0.1
	c-0.5,0-0.7,0.3-0.9,1.1l-3,9.3c-0.1,0.3-0.2,0.4-0.3,0.4c-0.2,0-0.3-0.3-0.4-0.5c-0.7-1.2-2-3.7-3.1-5.7c-1.1-2.1-2.2-4.4-2.4-4.8
	l0,0L41.4,110.8z"/>
<path class="st2" d="M56.2,109c-0.2-2.4-0.2-2.8-0.3-3.3c-0.1-0.5-0.2-0.8-0.7-0.8c-0.1,0-0.4,0-0.6,0c-0.2,0-0.3,0-0.3-0.1
	c0-0.1,0.1-0.1,0.3-0.2c0.8-0.1,1.8-0.1,2.2-0.1c0.5,0,1.5-0.1,2.4-0.2c1.9-0.1,4.5-0.3,6.3,1.3c0.8,0.8,1.6,2,1.8,3.8
	c0.1,1.9-0.6,3.5-1.4,4.4c-0.7,0.8-2.2,2-5.1,2.2c-0.6,0-1.2,0-1.8,0c-0.6,0-1.1,0-1.5,0c-0.2,0-0.5,0-0.9,0.1
	c-0.4,0-0.8,0.1-1.1,0.1c-0.2,0-0.3,0-0.3-0.1c0-0.1,0.1-0.1,0.2-0.1c0.2,0,0.4-0.1,0.6-0.1c0.3-0.1,0.4-0.4,0.4-0.9
	c0-0.7,0-1.9-0.1-3.3L56.2,109z M58.2,110.6c0.1,1.6,0.2,2.8,0.2,3.1c0,0.4,0.1,1,0.3,1.2c0.2,0.3,0.8,0.6,2.1,0.5
	c1.6-0.1,2.6-0.5,3.5-1.4c0.9-0.9,1.1-2.3,1-3.9c-0.1-2-1-3.2-1.7-3.8c-1.5-1.3-3.3-1.3-4.5-1.2c-0.3,0-0.9,0.1-1,0.2
	c-0.1,0.1-0.2,0.2-0.2,0.3c0,0.5,0.1,1.9,0.2,3.1L58.2,110.6z"/>
<path class="st2" d="M69.5,109.1c-1.1-2.4-0.9-6.3,3.3-8.2c3.5-1.6,6.6-0.5,8.1,2.7c1.5,3.2,0.4,6.8-3.2,8.4
	C73.6,113.9,70.6,111.6,69.5,109.1z M79.2,105c-1.4-3.2-4.1-4.3-6.5-3.2c-1.6,0.7-3.1,2.5-1.5,6c1.3,2.9,4,4.5,6.7,3.3
	C78.9,110.6,81,109.1,79.2,105z"/>
<path class="st2" d="M87.2,103.6c0.9,0.8,1.3,1,1.6,0.8c0.3-0.1,0.5-0.3,0.7-0.5c0.1-0.1,0.2-0.2,0.3-0.1c0.1,0.1,0,0.2-0.1,0.4
	c-0.7,0.7-1.2,1.1-1.4,1.3c-0.1,0.1-0.6,0.6-1.2,1.2c-0.1,0.1-0.3,0.2-0.4,0.1c-0.1-0.1,0-0.2,0.1-0.3c0.1-0.1,0.3-0.3,0.4-0.5
	c0.2-0.4-0.1-0.7-1-1.7l-6.3-6.6c-0.2-0.2-0.3-0.4-0.2-0.5c0.1-0.1,0.4-0.1,0.7-0.1c0.3,0,3.7,0.1,6.9,0.1c1.5,0,4.5,0.1,4.9,0.1
	l0.1-0.1l-5-4.8c-0.7-0.7-1-0.8-1.4-0.6c-0.2,0.1-0.5,0.4-0.7,0.5c-0.1,0.1-0.2,0.1-0.3,0.1c-0.1-0.1,0-0.2,0.2-0.4
	c0.6-0.6,1.1-1.1,1.4-1.3c0.1-0.1,0.5-0.6,1-1.1c0.1-0.1,0.3-0.2,0.4-0.2c0.1,0.1,0,0.2-0.1,0.3c-0.1,0.1-0.2,0.2-0.3,0.4
	c-0.2,0.4-0.1,0.7,0.5,1.3l6.7,7.1c0.2,0.2,0.3,0.4,0.2,0.5c-0.1,0.1-0.4,0.1-0.6,0.1c-1.3,0-4.2,0-6.5,0c-2.4,0-4.9-0.1-5.3-0.2
	l0,0L87.2,103.6z"/>
<path class="st2" d="M90.1,102.8l0.3,0.3c0.1-0.1,0.3-0.2,0.4-0.3C90.6,102.7,90.3,102.7,90.1,102.8z"/>
<path class="st3" d="M103.8,30.7c-0.9,0.2-2.4,0.6-3.8,1c5.7,8,9,17.7,9,28.3c0,13-5.1,24.8-13.4,33.6l2.7,2.5
	c8.9-9.4,14.4-22.2,14.4-36.1C112.7,49.2,109.4,39.1,103.8,30.7z"/>
<path d="M91.6,97.4c-0.2,0.1-0.3,0.3-0.5,0.4c0.3,0,0.6,0,1,0C92.1,97.8,91.9,97.6,91.6,97.4z"/>
<path class="st3" d="M19.8,32.1c-0.4-0.6-0.9-1.2-1.4-1.9c0,0-0.4-0.5-0.9-1.2C11.1,37.7,7.3,48.4,7.3,60c0,12.1,4.1,23.2,11,32.1
	c0.1,0,0.3,0,0.4,0.1c0.4-0.3,0.8-0.6,1.1-0.9c0,0,0.7-0.6,1.5-1.2C14.8,81.7,11,71.3,11,60C11,49.6,14.2,40,19.8,32.1z"/>
</svg>
